# File created by Blade
# Date/Time:  Tue Apr 07 20:17:56 2015
# Frame Rate: 120.000 fps
#------------------------------------------------------
:FULLY-SPECIFIED
:DEGREES
1197
root 7.623314 32.874536 -11.497931 6.077238 -28.589284 -28.373836
Spine 20.537648 12.946430 18.490967
Head -12.425189 0.423223 -3.807521
LeftShoulder -24.134205 42.923688 10.310909
LeftArm 53.023241 -44.434257 -78.239361
LeftForeArm -4.778324 -0.000000 11.352651
LeftHand 15.074667 -0.000000 11.066337
LeftHandThumb1 -26.253704 0.000000 33.147579
RightShoulder 6.055397 11.622343 -25.103821
RightArm 13.529624 22.588002 44.084269
RightForeArm 36.595974 0.000000 -0.533461
RightHand -0.564743 -0.000000 12.151338
RightHandThumb1 -24.326973 -0.000000 -32.862282
LeftUpLeg -7.525669 11.751483 17.891879
LeftLeg 26.565107 -0.000000 -0.000000
LeftFoot -22.680578 19.612318 -21.534372
LeftToeBase -6.009587 -0.000000 0.000000
RightUpLeg -118.869096 -40.175555 12.964197
RightLeg 42.006520 -0.000000 -0.000000
RightFoot 43.066976 -16.370453 2.677045
RightToeBase 35.205515 -0.000000 -0.000000
1198
root 7.635394 32.869509 -11.502131 5.702777 -28.532820 -27.773928
Spine 20.531411 12.899211 17.814575
Head -12.119491 0.408450 -3.518218
LeftShoulder -24.102660 42.868425 10.420315
LeftArm 53.124784 -44.544852 -78.490894
LeftForeArm -4.713349 0.000000 11.259366
LeftHand 15.068913 -0.000000 11.532600
LeftHandThumb1 -26.253704 0.000000 33.147579
RightShoulder 6.006284 11.312343 -25.234084
RightArm 13.513834 22.089884 44.359086
RightForeArm 37.641495 -0.000000 0.143616
RightHand -0.491848 0.000000 12.518599
RightHandThumb1 -24.326973 -0.000000 -32.862282
LeftUpLeg -7.392205 11.934508 17.418014
LeftLeg 26.402439 -0.000000 -0.000000
LeftFoot -22.685032 19.006480 -21.879148
LeftToeBase -5.660300 -0.000000 0.000000
RightUpLeg -119.952693 -39.813955 13.931718
RightLeg 41.940444 -0.000000 -0.000000
RightFoot 42.993906 -16.017986 2.700642
RightToeBase 35.203843 -0.000000 -0.000000
1199
root 7.647939 32.865396 -11.505837 5.319027 -28.450587 -27.193311
Spine 20.551142 12.829976 17.179982
Head -11.837215 0.371904 -3.281833
LeftShoulder -24.063887 42.751192 10.552041
LeftArm 53.261385 -44.655346 -78.801699
LeftForeArm -4.484145 0.000000 11.197413
LeftHand 14.930131 0.000000 10.942706
LeftHandThumb1 -26.253704 0.000000 33.147579
RightShoulder 5.910903 11.141412 -25.395731
RightArm 13.421498 21.584191 44.605633
RightForeArm 38.645280 -0.000000 0.852224
RightHand -0.313746 -0.000000 12.820742
RightHandThumb1 -24.326973 -0.000000 -32.862282
LeftUpLeg -7.265765 12.150599 17.004624
LeftLeg 26.325876 -0.000000 -0.000000
LeftFoot -22.695369 18.099340 -22.423606
LeftToeBase -5.362592 -0.000000 0.000000
RightUpLeg -120.936953 -39.468922 14.813252
RightLeg 41.701931 -0.000000 -0.000000
RightFoot 42.981825 -15.850768 2.674671
RightToeBase 35.130599 -0.000000 -0.000000
1200
root 7.656770 32.859766 -11.511112 4.939916 -28.345996 -26.614455
Spine 20.544847 12.723946 16.513519
Head -11.545230 0.388623 -3.019177
LeftShoulder -24.004641 42.621147 10.712710
LeftArm 53.242872 -44.707003 -78.919978
LeftForeArm -4.207462 -0.000000 11.126743
LeftHand 14.939888 -0.000000 10.966404
LeftHandThumb1 -26.253704 0.000000 33.147579
RightShoulder 5.805044 11.082964 -25.536644
RightArm 13.316802 21.108994 44.832419
RightForeArm 39.556482 0.000000 1.526502
RightHand -0.216545 -0.000000 12.959698
RightHandThumb1 -24.326973 -0.000000 -32.862282
LeftUpLeg -7.163549 12.361230 16.603016
LeftLeg 26.290369 -0.000000 -0.000000
LeftFoot -22.658297 17.191878 -22.896471
LeftToeBase -5.045715 -0.000000 0.000000
RightUpLeg -121.923423 -39.098969 15.676988
RightLeg 41.342290 -0.000000 -0.000000
RightFoot 42.977978 -15.934873 2.641684
RightToeBase 35.062727 -0.000000 -0.000000
1201
root 7.657822 32.854870 -11.521376 4.610465 -28.215550 -26.131343
Spine 20.546320 12.647446 15.914767
Head -11.310857 0.343600 -2.671185
LeftShoulder -23.914624 42.469047 10.926099
LeftArm 53.116110 -44.670932 -78.895097
LeftForeArm -3.992498 -0.000000 11.128008
LeftHand 14.944445 -0.000000 10.896889
LeftHandThumb1 -26.253704 0.000000 33.147579
RightShoulder 5.604774 11.072668 -25.665480
RightArm 13.245950 20.722919 45.042209
RightForeArm 40.385493 -0.000000 2.151979
RightHand -0.105516 -0.000000 13.219360
RightHandThumb1 -24.326973 -0.000000 -32.862282
LeftUpLeg -7.097883 12.548753 16.312824
LeftLeg 26.322921 -0.000000 -0.000000
LeftFoot -22.592474 16.206535 -23.337299
LeftToeBase -4.653519 -0.000000 0.000000
RightUpLeg -122.846640 -38.745988 16.539252
RightLeg 40.897758 -0.000000 -0.000000
RightFoot 42.841260 -15.927579 2.646508
RightToeBase 35.042785 -0.000000 -0.000000
1202
root 7.657777 32.848952 -11.533475 4.275494 -28.067927 -25.615746
Spine 20.523086 12.535146 15.264409
Head -11.055263 0.293239 -2.328944
LeftShoulder -23.813146 42.328915 11.095899
LeftArm 52.974411 -44.693086 -78.796735
LeftForeArm -3.642612 -0.000000 11.124844
LeftHand 14.864281 -0.000000 11.404498
LeftHandThumb1 -26.253704 0.000000 33.147579
RightShoulder 5.382994 11.231368 -25.791024
RightArm 13.163471 20.500741 45.282391
RightForeArm 40.930606 -0.000000 2.675026
RightHand -0.095680 -0.000000 13.549298
RightHandThumb1 -24.326973 -0.000000 -32.862282
LeftUpLeg -7.080441 12.776650 16.028791
LeftLeg 26.448202 -0.000000 -0.000000
LeftFoot -22.528387 14.938867 -23.963795
LeftToeBase -3.976493 -0.000000 0.000000
RightUpLeg -123.662356 -38.420750 17.217000
RightLeg 40.335682 -0.000000 -0.000000
RightFoot 42.702511 -16.013659 2.716562
RightToeBase 34.996537 -0.000000 -0.000000
1203
root 7.652198 32.843846 -11.547937 3.936378 -27.901587 -25.113838
Spine 20.508657 12.399890 14.602385
Head -10.799057 0.223403 -1.950017
LeftShoulder -23.700871 42.239205 11.256523
LeftArm 52.839580 -44.737696 -78.703808
LeftForeArm -3.509433 -0.000000 11.194363
LeftHand 14.932316 0.000000 10.950014
LeftHandThumb1 -26.253704 0.000000 33.147579
RightShoulder 5.126955 11.392674 -25.933924
RightArm 13.180230 20.453765 45.592061
RightForeArm 41.317008 -0.000000 3.083385
RightHand -0.107880 -0.000000 13.983905
RightHandThumb1 -24.326973 -0.000000 -32.862282
LeftUpLeg -7.084199 13.022860 15.806078
LeftLeg 26.645774 -0.000000 -0.000000
LeftFoot -22.308972 13.496623 -24.534130
LeftToeBase -3.603343 -0.000000 0.000000
RightUpLeg -124.453087 -38.093349 17.860228
RightLeg 39.723554 -0.000000 -0.000000
RightFoot 42.612320 -16.209793 2.865719
RightToeBase 34.978561 -0.000000 -0.000000
1204
root 7.641701 32.839795 -11.561786 3.571431 -27.723400 -24.607219
Spine 20.508642 12.234323 13.907461
Head -10.541297 0.125579 -1.554996
LeftShoulder -23.623048 42.168759 11.331518
LeftArm 52.763310 -44.838419 -78.572366
LeftForeArm -3.256387 0.000000 11.268271
LeftHand 14.864693 -0.000000 11.274818
LeftHandThumb1 -26.253704 0.000000 33.147579
RightShoulder 4.871956 11.740951 -26.072619
RightArm 13.131401 20.369781 45.893919
RightForeArm 41.529604 -0.000000 3.357978
RightHand -0.139257 -0.000000 14.377723
RightHandThumb1 -24.326973 -0.000000 -32.862282
LeftUpLeg -7.071207 13.250478 15.625159
LeftLeg 26.929840 -0.000000 -0.000000
LeftFoot -22.099428 11.745499 -25.270211
LeftToeBase -2.890787 -0.000000 0.000000
RightUpLeg -125.225227 -37.752553 18.471787
RightLeg 39.089924 -0.000000 -0.000000
RightFoot 42.501866 -16.451273 2.968868
RightToeBase 35.087909 -0.000000 -0.000000
1205
root 7.625578 32.837027 -11.575918 3.236072 -27.538506 -24.169600
Spine 20.497986 12.057622 13.267943
Head -10.254563 0.044373 -1.170961
LeftShoulder -23.549436 42.124417 11.381364
LeftArm 52.654607 -44.912126 -78.391087
LeftForeArm -3.159190 0.000000 11.385836
LeftHand 14.863052 0.000000 11.546316
LeftHandThumb1 -26.253704 0.000000 33.147579
RightShoulder 4.602737 12.100685 -26.299772
RightArm 13.086598 20.355064 46.304911
RightForeArm 41.572210 -0.000000 3.646969
RightHand -0.140599 -0.000000 14.958659
RightHandThumb1 -24.326973 -0.000000 -32.862282
LeftUpLeg -7.070451 13.359689 15.559684
LeftLeg 27.330219 -0.000000 -0.000000
LeftFoot -21.707275 9.737570 -25.954372
LeftToeBase -2.134311 -0.000000 0.000000
RightUpLeg -126.024146 -37.370631 19.157841
RightLeg 38.473822 -0.000000 -0.000000
RightFoot 42.361850 -16.812968 3.178437
RightToeBase 35.311781 -0.000000 -0.000000
1206
root 7.605972 32.835249 -11.593874 2.882170 -27.372676 -23.696087
Spine 20.490204 11.892025 12.538798
Head -9.956498 0.026380 -0.708145
LeftShoulder -23.569195 42.178329 11.371935
LeftArm 52.797305 -45.022284 -78.412990
LeftForeArm -3.069891 -0.000000 11.507954
LeftHand 14.949948 -0.000000 11.686701
LeftHandThumb1 -26.253704 0.000000 33.147579
RightShoulder 4.400790 12.441074 -26.546114
RightArm 12.974799 20.423135 46.762950
RightForeArm 41.647309 -0.000000 4.006218
RightHand -0.112076 -0.000000 15.506782
RightHandThumb1 -24.326973 -0.000000 -32.862282
LeftUpLeg -7.090277 13.452287 15.510112
LeftLeg 27.839123 -0.000000 -0.000000
LeftFoot -21.141954 7.379004 -26.834968
LeftToeBase -1.569294 -0.000000 0.000000
RightUpLeg -126.790642 -36.945463 19.771542
RightLeg 37.829759 -0.000000 -0.000000
RightFoot 42.304061 -16.975129 3.247720
RightToeBase 35.336994 -0.000000 -0.000000
